<?xml version="1.0" encoding="UTF-8" standalone="no"?>
<!DOCTYPE svg PUBLIC "-//W3C//DTD SVG 1.1//EN" "http://www.w3.org/Graphics/SVG/1.1/DTD/svg11.dtd">
<svg width="100%" height="100%" viewBox="0 0 1623 1914" version="1.1" xmlns="http://www.w3.org/2000/svg" xmlns:xlink="http://www.w3.org/1999/xlink" xml:space="preserve" xmlns:serif="http://www.serif.com/" style="fill-rule:evenodd;clip-rule:evenodd;stroke-linejoin:round;stroke-miterlimit:2;">
    <g transform="matrix(1,0,0,1,-988.231502,-1152)">
        <g transform="matrix(1.139672,0,0,1.16092,-267.918033,-462.83908)">
            <path d="M1864,1735C1884.218,1723.046 1902.274,1710.275 1919,1697C1938.888,1674.658 1954.622,1651.528 1963,1627C1966.91,1616.09 1969.497,1605.084 1971,1594L1971,1550C1964.106,1514.275 1950.539,1486.709 1933,1464C1894.401,1420.713 1847.53,1396.089 1792,1391L1758,1391C1723.763,1394.639 1695.036,1403.919 1671,1418C1646.342,1432.181 1629.582,1447.664 1618,1464C1598.098,1488.566 1585.993,1513.922 1581,1540L1578,1566L1578,1579C1580.488,1605.084 1586.872,1629.535 1598,1652C1608.945,1672.421 1622.192,1689.223 1638,1702C1656.247,1717.722 1676.159,1730.227 1698,1739C1717.267,1745.146 1738.071,1749.98 1761,1753L1789,1753C1814.208,1749.927 1839.226,1744.177 1864,1735Z" style="fill:#005477;"/>
            <path d="M1333,2544C1371.628,2552.394 1410.921,2557.902 1451,2560L1546,2563L1593,2563L1668,2561L1773,2557L1780,2586C1787.132,2609.51 1797.379,2632.848 1811,2656L1851,2712C1868.105,2733.281 1889.623,2753.707 1917,2773C1944.3,2791.553 1974.308,2806.208 2007,2817C2041.765,2829.833 2078.696,2836.022 2117,2838L2160,2838C2197.216,2836.958 2235.389,2831.67 2275,2820C2311.176,2809.453 2347.188,2792.304 2383,2767C2402.57,2753.265 2425.46,2733.788 2452,2708C2468.169,2694.34 2479.009,2673.489 2511,2669L2526,2669L2525,2682C2523.521,2700.396 2519.655,2716.177 2514,2730C2509.11,2743.459 2503.555,2757.096 2497,2771C2489.01,2787.582 2479.227,2803.943 2467,2820C2456.225,2834.386 2444.901,2849.051 2431,2864C2421.623,2874.405 2410.672,2885.064 2398,2896C2385.406,2907.782 2369.871,2919.752 2350,2932C2324.302,2948.031 2294.814,2963.261 2263,2978C2233.226,2989.745 2199.947,3000.756 2163,3011C2132.561,3019.163 2091.674,3026.387 2044,3033L1963,3039C1932.978,3039.239 1902.98,3037.806 1873,3035C1851.001,3032.494 1829.001,3028.745 1807,3024C1784.748,3019.058 1762.741,3013.409 1741,3007C1710.961,2996.056 1689.854,2992.86 1648,2969C1625.452,2956.146 1597.47,2938.954 1564,2916C1548.667,2904.048 1533.334,2891.182 1518,2877C1498.357,2859.971 1479.98,2840.713 1463,2819C1440.219,2792.537 1420.537,2762.133 1403,2729C1385.336,2698.212 1370.597,2665.361 1358,2631C1347.389,2602.143 1339.248,2573.131 1333,2544Z" style="fill:#82d1f5;"/>
            <path d="M1228,1955L1251,2018L1286,2104L1322,2186C1332.945,2210.66 1344.585,2229.863 1357,2243L1374,2195C1385.689,2166.466 1398.984,2142.667 1413,2121C1434.434,2085.762 1459.849,2051.906 1488,2019C1518.992,1986.05 1551.673,1956.413 1586,1930L1645,1892C1683.507,1871.461 1723.147,1854.054 1764,1840C1807.94,1828.177 1852.549,1818.646 1898,1812C1933.053,1805.093 1968.38,1800.377 2004,1798L2073,1798C2120.134,1802.216 2168.3,1809.687 2218,1822C2251.304,1832.602 2284,1844.855 2316,1859C2347.884,1876.855 2377.793,1895.339 2404,1915C2425.506,1933.617 2445.702,1953.219 2463,1975C2479.459,1997.497 2494.495,2021.717 2507,2049C2516.168,2072.723 2522.69,2096.704 2526,2121L2526,2173C2523.013,2194.279 2519.636,2210.705 2517,2221C2507.283,2258.947 2489.769,2292.663 2463,2320C2427.385,2353.837 2390.031,2382.105 2351,2405C2293.744,2433.768 2238.424,2455.719 2185,2471C2118.003,2489.049 2051.003,2500.904 1984,2509C1927.367,2514.752 1871.086,2518.055 1815,2520L1715,2520C1683.973,2519.155 1651.202,2514.955 1617,2508C1565.128,2498.155 1514.95,2484.47 1466,2468C1403.348,2448.421 1344.317,2420.823 1289,2385C1252.534,2362.259 1219.39,2336.837 1188,2310C1156.791,2281.441 1128.783,2249.051 1103,2214C1100.733,2189.156 1103.269,2164.484 1111,2140C1121.879,2106.49 1136.265,2078.234 1152,2052C1173.952,2014.936 1199.507,1982.913 1228,1955ZM1709,2396C1764.421,2396.504 1820.462,2394.401 1878,2386C1914.5,2381.904 1950.483,2376.197 1986,2369C2020.208,2361.229 2053.629,2351.451 2086,2339C2113.652,2327.751 2140.04,2314.185 2165,2298C2183.355,2284.732 2199.263,2270.191 2211.123,2254C2220.061,2238.305 2229.639,2216.109 2233,2199C2233.88,2194.52 2234.784,2189.097 2234.877,2187C2236.067,2174.081 2235.459,2161.099 2234,2148C2232.39,2131.736 2229.2,2122.293 2225,2109C2218.542,2088.56 2208.693,2071.39 2197,2056C2182.423,2038.886 2170.026,2027.424 2155,2016C2137.869,2004.348 2121.493,1995.105 2104,1987C2094.004,1982.369 2089.661,1978.933 2059,1970C2058.383,1969.82 2017.575,1961.421 2017,1962C2004.512,1961.269 1988.878,1962.136 1976,1963C1943.297,1970.291 1917.12,1980.672 1897,1995C1869.968,2012.713 1855.31,2027.507 1836,2052C1811.22,2083.432 1792.195,2113.713 1780,2143C1765.522,2177.77 1754.363,2203.449 1746,2233C1738.055,2257.08 1731.972,2281.417 1726,2306C1717.514,2338.607 1711.437,2368.987 1709,2396Z" style="fill:#005477;"/>
        </g>
    </g>
</svg>
