<?xml version="1.0" encoding="UTF-8" standalone="no"?>
<!DOCTYPE svg PUBLIC "-//W3C//DTD SVG 1.1//EN" "http://www.w3.org/Graphics/SVG/1.1/DTD/svg11.dtd">
<svg width="100%" height="100%" viewBox="0 0 3476 2727" version="1.1" xmlns="http://www.w3.org/2000/svg" xmlns:xlink="http://www.w3.org/1999/xlink" xml:space="preserve" xmlns:serif="http://www.serif.com/" style="fill-rule:evenodd;clip-rule:evenodd;stroke-linejoin:round;stroke-miterlimit:2;">
    <g transform="matrix(1,0,0,1,-17,-1152)">
        <g transform="matrix(1.139672,0,0,1.16092,-267.918033,-462.83908)">
            <g>
                <path d="M3053,3196L3230,3196C3267.164,3198.802 3289.97,3231.914 3300,3292L3300,3738L3210,3738L3210,3569L3143,3569L3143,3738L3053,3738L3053,3196ZM3143,3492L3210,3492L3210,3308C3209.528,3288.377 3200.995,3277.273 3186,3273L3143,3273L3143,3492Z" style="fill:white;"/>
            </g>
            <path d="M1729,3738L1797,3738L1797,3435C1848.48,3545.064 1873.436,3735.022 1933,3738L1982,3738L1982,3196L1914,3196L1914,3491C1863.747,3385.94 1838.158,3197.257 1781,3195L1730,3195L1729,3738Z" style="fill:white;"/>
            <path d="M2303,3738L2303,3245C2308.533,3218.766 2322.677,3202.977 2344,3196L2479,3196C2515.577,3203.508 2538.819,3231.287 2545,3285L2545,3377C2536.747,3422.779 2517.308,3448.828 2490,3461C2522.305,3478.429 2544.568,3503.942 2550,3543L2550,3738L2460,3738L2460,3552C2457.084,3530.504 2447.098,3516.509 2431,3509L2393,3509L2393,3738L2303,3738ZM2393,3273L2393,3432L2427,3432C2445.882,3424.511 2454.006,3409.686 2455,3390L2455,3315C2452.498,3290.203 2442.461,3276.274 2425,3273L2393,3273Z" style="fill:white;"/>
            <rect x="2903" y="3196" width="90" height="542" style="fill:white;"/>
            <path d="M2881,3144L2933,3144C2959.28,3135.014 2986.8,3104.833 3015,3063L2922,3063L2881,3144Z" style="fill:white;"/>
            <path d="M802,3547L892,3547L892,3615C894.621,3640.642 900.973,3655.435 922,3661C942.917,3656.518 949.028,3641.007 950,3619L950,3545C949.239,3536.09 946.33,3529.708 942,3525L833,3436L817,3421C812.029,3412.628 808.003,3403.364 805,3393L802,3367L802,3290C803.919,3263.641 811.17,3241.857 823,3224C831.233,3209.209 846.926,3200.067 868,3195L975,3195C990.422,3198.738 1003.201,3205.605 1013,3216C1024.776,3229.973 1033.217,3245.442 1037,3263L1040,3282L1040,3370L950,3370L950,3312C946.843,3286.435 937.013,3273.749 921,3273C903.47,3276.384 893.587,3288.905 893,3313L893,3368C896.833,3378.948 904.954,3389.939 920,3401L1004,3468C1018.151,3478.815 1028.834,3492.29 1034,3510C1037.231,3517.999 1039.384,3525.999 1040,3534L1040,3651C1037.477,3675.882 1030.302,3696.043 1018,3711C1006.322,3726.919 991.607,3734.925 975,3738L866,3738C844.427,3733.43 829.46,3721.668 819,3705C808.936,3685.804 803.088,3665.774 801,3645L802,3547Z" style="fill:white;"/>
            <path d="M250,3195L452,3195L452,3272L339,3272L339,3410L446,3410L446,3487L339,3487L339,3613C342.399,3641.349 354.824,3659.857 371,3660L451,3660L451,3738L315,3738C295.489,3736.646 280.138,3725.055 267,3705C256.744,3688.349 250.985,3670.703 250,3652L250,3195Z" style="fill:white;"/>
            <path d="M661,3371L753,3371L753,3296C753.59,3275.839 748.833,3256.581 740,3238C730.718,3216.893 712.941,3202.386 686,3195L571,3195C542.164,3205.569 529.843,3215.179 520,3232C515.586,3240.861 509.126,3259.006 505,3280L505,3653C506.688,3674.219 512.802,3693.589 526,3710C537.127,3726.125 551.804,3735.438 570,3738L688,3738C704.845,3736.107 720.829,3724.93 736,3705C745.977,3689.389 751.19,3666.348 753,3638L753,3538L662,3538L663,3620C660.079,3646.925 646.251,3659.94 629,3661C613.632,3661.945 595.206,3648.709 596,3619L595,3316C596.448,3292.133 607.141,3275.801 629,3274C648.786,3275.206 658.777,3287.63 662,3314L661,3371Z" style="fill:white;"/>
            <path d="M2725,3524L2751,3524C2754.748,3524.622 2756.617,3527.441 2757,3532L2757,3623C2754.906,3645.942 2744.989,3659.507 2725,3661C2706.846,3658.271 2694.914,3645.372 2690,3621L2690,3314C2692.834,3286.749 2704.717,3274.061 2724,3273C2743.089,3274.782 2754.307,3286.911 2756,3312L2756,3371L2848,3371L2848,3292C2844.669,3235.07 2823.152,3202.735 2782,3195L2663,3195C2624.667,3207.987 2603.496,3236.83 2600,3282L2600,3652C2607.219,3701.531 2628.92,3729.653 2664,3738L2781,3738C2818.424,3734.792 2839.339,3700.086 2848,3642L2848,3513C2844.362,3477.578 2828.768,3456.564 2811,3456L2725,3456L2725,3524Z" style="fill:white;"/>
            <path d="M1095,3196L1299,3196L1299,3273L1185,3273L1185,3410L1292,3410L1292,3487L1185,3487L1185,3620C1190.176,3644.285 1200.107,3658.781 1216,3661L1299,3661L1299,3738C1252.195,3737.686 1205.584,3737.814 1159,3738C1123.688,3728.947 1102.469,3698.775 1095,3648L1095,3196Z" style="fill:white;"/>
            <g transform="matrix(1,0,0,1,944.813417,2)">
                <path d="M1095,3196L1299,3196L1299,3273L1185,3273L1185,3410L1292,3410L1292,3487L1185,3487L1185,3620C1190.176,3644.285 1200.107,3658.781 1216,3661L1299,3661L1299,3738C1252.195,3737.686 1205.584,3737.814 1159,3738C1123.688,3728.947 1102.469,3698.775 1095,3648L1095,3196Z" style="fill:white;"/>
            </g>
            <g transform="matrix(1,0,0,1,373.813417,1)">
                <path d="M1095,3196L1299,3196L1299,3273L1185,3273L1185,3410L1292,3410L1292,3487L1185,3487L1185,3620C1190.176,3644.285 1200.107,3658.781 1216,3661L1299,3661L1299,3738C1252.195,3737.686 1205.584,3737.814 1159,3738C1123.688,3728.947 1102.469,3698.775 1095,3648L1095,3196Z" style="fill:white;"/>
            </g>
        </g>
        <g transform="matrix(1.139672,0,0,1.16092,-267.918033,-462.83908)">
            <path d="M1864,1735C1884.218,1723.046 1902.274,1710.275 1919,1697C1938.888,1674.658 1954.622,1651.528 1963,1627C1966.91,1616.09 1969.497,1605.084 1971,1594L1971,1550C1964.106,1514.275 1950.539,1486.709 1933,1464C1894.401,1420.713 1847.53,1396.089 1792,1391L1758,1391C1723.763,1394.639 1695.036,1403.919 1671,1418C1646.342,1432.181 1629.582,1447.664 1618,1464C1598.098,1488.566 1585.993,1513.922 1581,1540L1578,1566L1578,1579C1580.488,1605.084 1586.872,1629.535 1598,1652C1608.945,1672.421 1622.192,1689.223 1638,1702C1656.247,1717.722 1676.159,1730.227 1698,1739C1717.267,1745.146 1738.071,1749.98 1761,1753L1789,1753C1814.208,1749.927 1839.226,1744.177 1864,1735Z" style="fill:white;"/>
            <path d="M1333,2544C1371.628,2552.394 1410.921,2557.902 1451,2560L1546,2563L1593,2563L1668,2561L1773,2557L1780,2586C1787.132,2609.51 1797.379,2632.848 1811,2656L1851,2712C1868.105,2733.281 1889.623,2753.707 1917,2773C1944.3,2791.553 1974.308,2806.208 2007,2817C2041.765,2829.833 2078.696,2836.022 2117,2838L2160,2838C2197.216,2836.958 2235.389,2831.67 2275,2820C2311.176,2809.453 2347.188,2792.304 2383,2767C2402.57,2753.265 2425.46,2733.788 2452,2708C2468.169,2694.34 2479.009,2673.489 2511,2669L2526,2669L2525,2682C2523.521,2700.396 2519.655,2716.177 2514,2730C2509.11,2743.459 2503.555,2757.096 2497,2771C2489.01,2787.582 2479.227,2803.943 2467,2820C2456.225,2834.386 2444.901,2849.051 2431,2864C2421.623,2874.405 2410.672,2885.064 2398,2896C2385.406,2907.782 2369.871,2919.752 2350,2932C2324.302,2948.031 2294.814,2963.261 2263,2978C2233.226,2989.745 2199.947,3000.756 2163,3011C2132.561,3019.163 2091.674,3026.387 2044,3033L1963,3039C1932.978,3039.239 1902.98,3037.806 1873,3035C1851.001,3032.494 1829.001,3028.745 1807,3024C1784.748,3019.058 1762.741,3013.409 1741,3007C1710.961,2996.056 1689.854,2992.86 1648,2969C1625.452,2956.146 1597.47,2938.954 1564,2916C1548.667,2904.048 1533.334,2891.182 1518,2877C1498.357,2859.971 1479.98,2840.713 1463,2819C1440.219,2792.537 1420.537,2762.133 1403,2729C1385.336,2698.212 1370.597,2665.361 1358,2631C1347.389,2602.143 1339.248,2573.131 1333,2544Z" style="fill:white;"/>
            <path d="M1228,1955L1251,2018L1286,2104L1322,2186C1332.945,2210.66 1344.585,2229.863 1357,2243L1374,2195C1385.689,2166.466 1398.984,2142.667 1413,2121C1434.434,2085.762 1459.849,2051.906 1488,2019C1518.992,1986.05 1551.673,1956.413 1586,1930L1645,1892C1683.507,1871.461 1723.147,1854.054 1764,1840C1807.94,1828.177 1852.549,1818.646 1898,1812C1933.053,1805.093 1968.38,1800.377 2004,1798L2073,1798C2120.134,1802.216 2168.3,1809.687 2218,1822C2251.304,1832.602 2284,1844.855 2316,1859C2347.884,1876.855 2377.793,1895.339 2404,1915C2425.506,1933.617 2445.702,1953.219 2463,1975C2479.459,1997.497 2494.495,2021.717 2507,2049C2516.168,2072.723 2522.69,2096.704 2526,2121L2526,2173C2523.013,2194.279 2519.636,2210.705 2517,2221C2507.283,2258.947 2489.769,2292.663 2463,2320C2427.385,2353.837 2390.031,2382.105 2351,2405C2293.744,2433.768 2238.424,2455.719 2185,2471C2118.003,2489.049 2051.003,2500.904 1984,2509C1927.367,2514.752 1871.086,2518.055 1815,2520L1715,2520C1683.973,2519.155 1651.202,2514.955 1617,2508C1565.128,2498.155 1514.95,2484.47 1466,2468C1403.348,2448.421 1344.317,2420.823 1289,2385C1252.534,2362.259 1219.39,2336.837 1188,2310C1156.791,2281.441 1128.783,2249.051 1103,2214C1100.733,2189.156 1103.269,2164.484 1111,2140C1121.879,2106.49 1136.265,2078.234 1152,2052C1173.952,2014.936 1199.507,1982.913 1228,1955ZM1709,2396C1764.421,2396.504 1820.462,2394.401 1878,2386C1914.5,2381.904 1950.483,2376.197 1986,2369C2020.208,2361.229 2053.629,2351.451 2086,2339C2113.652,2327.751 2140.04,2314.185 2165,2298C2183.355,2284.732 2199.263,2270.191 2211.123,2254C2220.061,2238.305 2229.639,2216.109 2233,2199C2233.88,2194.52 2234.784,2189.097 2234.877,2187C2236.067,2174.081 2235.459,2161.099 2234,2148C2232.39,2131.736 2229.2,2122.293 2225,2109C2218.542,2088.56 2208.693,2071.39 2197,2056C2182.423,2038.886 2170.026,2027.424 2155,2016C2137.869,2004.348 2121.493,1995.105 2104,1987C2094.004,1982.369 2089.661,1978.933 2059,1970C2058.383,1969.82 2017.575,1961.421 2017,1962C2004.512,1961.269 1988.878,1962.136 1976,1963C1943.297,1970.291 1917.12,1980.672 1897,1995C1869.968,2012.713 1855.31,2027.507 1836,2052C1811.22,2083.432 1792.195,2113.713 1780,2143C1765.522,2177.77 1754.363,2203.449 1746,2233C1738.055,2257.08 1731.972,2281.417 1726,2306C1717.514,2338.607 1711.437,2368.987 1709,2396Z" style="fill:white;"/>
        </g>
    </g>
</svg>
